<svg width="30" height="30" viewBox="0 0 30 30" fill="none" xmlns="http://www.w3.org/2000/svg">
<path d="M14.8801 15.082C14.9594 15.028 15.0277 14.9597 15.0817 14.8804C15.1295 14.8101 15.1653 14.7323 15.1875 14.6501L15.1998 14.6047C15.2225 14.5208 15.2347 14.4343 15.2359 14.3474L15.2371 14.2659C15.2386 14.1661 15.2312 14.0664 15.2151 13.9679L15.1697 13.691L15.0261 13.2082L14.81 12.6729L14.5237 12.0909L14.1705 11.4685L13.7541 10.8126L13.2792 10.1303L12.7509 9.42925L12.1751 8.71699L11.558 8.00136L10.9063 7.29021L10.2274 6.59132L9.52849 5.91234L8.81734 5.26073L8.10171 4.64362L7.38946 4.06776L6.68838 3.53948L6.00615 3.06455L5.35025 2.64818L4.72787 2.29493L4.14582 2.00868L3.61048 1.79255L3.12771 1.64892L2.85088 1.6036C2.75236 1.58747 2.65261 1.58009 2.5528 1.58154L2.47135 1.58273C2.38442 1.584 2.29798 1.59612 2.21405 1.61883L2.1686 1.63112C2.08648 1.65334 2.00865 1.68912 1.93832 1.73699C1.85908 1.79093 1.7907 1.85931 1.73676 1.93855C1.68889 2.00888 1.65311 2.08671 1.63089 2.16883L1.6186 2.21429C1.59589 2.29821 1.58376 2.38465 1.5825 2.47159L1.58131 2.55303C1.57986 2.65285 1.58724 2.7526 1.60337 2.85111L1.64869 3.12795L1.79232 3.61072L2.00844 4.14606L2.2947 4.72811L2.64794 5.3505L3.06431 6.0064L3.53924 6.68863L4.06752 7.38972L4.64337 8.10198L5.26048 8.8176L5.91209 9.52876L6.59106 10.2277L7.28995 10.9066L8.0011 11.5582L8.71673 12.1754L9.42898 12.7512L10.1301 13.2795L10.8123 13.7544L11.4682 14.1708L12.0906 14.524L12.6726 14.8103L13.208 15.0264L13.6907 15.17L13.9676 15.2154C14.0661 15.2315 14.1658 15.2389 14.2656 15.2374L14.3471 15.2362C14.434 15.235 14.5205 15.2228 14.6044 15.2001L14.6498 15.1878C14.732 15.1656 14.8098 15.1298 14.8801 15.082Z" fill="#6B1E23"/>
<path d="M15.1194 14.9183C15.0402 14.9723 14.9718 15.0406 14.9178 15.1199C14.87 15.1902 14.8342 15.268 14.812 15.3502L14.7997 15.3956C14.777 15.4795 14.7648 15.566 14.7636 15.6529L14.7624 15.7344C14.7609 15.8342 14.7683 15.9339 14.7844 16.0324L14.8298 16.3093L14.9734 16.792L15.1895 17.3274L15.4758 17.9094L15.829 18.5318L16.2454 19.1877L16.7203 19.87L17.2486 20.571L17.8244 21.2833L18.4416 21.9989L19.0932 22.7101L19.7721 23.409L20.471 24.088L21.1822 24.7396L21.8978 25.3567L22.6101 25.9325L23.3111 26.4608L23.9934 26.9357L24.6493 27.3521L25.2716 27.7054L25.8537 27.9916L26.389 28.2077L26.8718 28.3514L27.1486 28.3967C27.2472 28.4128 27.3469 28.4202 27.4467 28.4188L27.5282 28.4176C27.6151 28.4163 27.7015 28.4042 27.7855 28.3815L27.8309 28.3692C27.913 28.347 27.9909 28.3112 28.0612 28.2633C28.1404 28.2094 28.2088 28.141 28.2628 28.0617C28.3106 27.9914 28.3464 27.9136 28.3686 27.8315L28.3809 27.786C28.4036 27.7021 28.4157 27.6156 28.417 27.5287L28.4182 27.4473C28.4197 27.3474 28.4123 27.2477 28.3961 27.1492L28.3508 26.8723L28.2072 26.3896L27.9911 25.8542L27.7048 25.2722L27.3516 24.6498L26.9352 23.9939L26.4603 23.3117L25.932 22.6106L25.3561 21.8983L24.739 21.1827L24.0874 20.4715L23.4085 19.7726L22.7096 19.0937L21.9984 18.4421L21.2828 17.8249L20.5705 17.2491L19.8695 16.7208L19.1872 16.2459L18.5313 15.8295L17.9089 15.4763L17.3269 15.19L16.7916 14.9739L16.3088 14.8303L16.0319 14.7849C15.9334 14.7688 15.8337 14.7614 15.7339 14.7629L15.6524 14.7641C15.5655 14.7653 15.4791 14.7775 15.3951 14.8002L15.3497 14.8125C15.2676 14.8347 15.1897 14.8705 15.1194 14.9183Z" fill="#6B1E23"/>
<path d="M15.0811 15.1203C15.0272 15.041 14.9588 14.9726 14.8795 14.9187C14.8092 14.8708 14.7314 14.8351 14.6493 14.8128L14.6038 14.8005C14.5199 14.7778 14.4334 14.7657 14.3465 14.7644L14.2651 14.7633C14.1652 14.7618 14.0655 14.7692 13.967 14.7853L13.6902 14.8306L13.2074 14.9743L12.672 15.1904L12.09 15.4766L11.4676 15.8299L10.8117 16.2463L10.1295 16.7212L9.42841 17.2495L8.71615 17.8253L8.00053 18.4424L7.28938 19.0941L6.59049 19.773L5.91152 20.4719L5.25991 21.1831L4.6428 21.8987L4.06695 22.611L3.53866 23.312L3.06374 23.9943L2.64737 24.6502L2.29412 25.2726L2.00787 25.8546L1.79175 26.39L1.64812 26.8727L1.6028 27.1496C1.58667 27.2481 1.57929 27.3478 1.58074 27.4476L1.58193 27.5291C1.58319 27.616 1.59532 27.7025 1.61802 27.7864L1.63032 27.8319C1.65254 27.914 1.68832 27.9918 1.73619 28.0621C1.79013 28.1414 1.85851 28.2097 1.93775 28.2637C2.00807 28.3116 2.0859 28.3473 2.16802 28.3696L2.21348 28.3819C2.29741 28.4046 2.38384 28.4167 2.47078 28.418L2.55223 28.4191C2.65204 28.4206 2.75179 28.4132 2.8503 28.3971L3.12714 28.3518L3.60991 28.2081L4.14525 27.992L4.7273 27.7058L5.34968 27.3525L6.00558 26.9361L6.68781 26.4612L7.38889 25.9329L8.10114 25.3571L8.81676 24.74L9.52792 24.0883L10.2268 23.4094L10.9058 22.7105L11.5574 21.9993L12.1745 21.2837L12.7503 20.5714L13.2786 19.8703L13.7536 19.1881L14.1699 18.5322L14.5232 17.9098L14.8094 17.3278L15.0255 16.7924L15.1692 16.3097L15.2145 16.0328C15.2306 15.9343 15.238 15.8346 15.2366 15.7347L15.2354 15.6533C15.2341 15.5664 15.222 15.4799 15.1993 15.396L15.187 15.3505C15.1648 15.2684 15.129 15.1906 15.0811 15.1203Z" fill="#6B1E23"/>
<path d="M14.9184 14.88C14.9724 14.9593 15.0407 15.0276 15.12 15.0816C15.1903 15.1295 15.2681 15.1652 15.3502 15.1875L15.3957 15.1998C15.4796 15.2225 15.5661 15.2346 15.653 15.2359L15.7345 15.237C15.8343 15.2385 15.934 15.2311 16.0325 15.215L16.3094 15.1697L16.7921 15.026L17.3275 14.8099L17.9095 14.5237L18.5319 14.1704L19.1878 13.754L19.87 13.2791L20.5711 12.7508L21.2834 12.175L21.999 11.5579L22.7101 10.9062L23.409 10.2273L24.088 9.52837L24.7396 8.81722L25.3567 8.10159L25.9326 7.38933L26.4608 6.68825L26.9358 6.00602L27.3521 5.35012L27.7054 4.72773L27.9916 4.14568L28.2078 3.61033L28.3514 3.12757L28.3967 2.85072C28.4128 2.75221 28.4202 2.65247 28.4188 2.55266L28.4176 2.4712C28.4163 2.38426 28.4042 2.29783 28.3815 2.2139L28.3692 2.16845C28.347 2.08632 28.3112 2.00849 28.2633 1.93816C28.2094 1.85892 28.141 1.79055 28.0618 1.73661C27.9914 1.68874 27.9136 1.65295 27.8315 1.63074L27.786 1.61844C27.7021 1.59574 27.6157 1.58361 27.5287 1.58234L27.4473 1.58116C27.3475 1.57971 27.2477 1.58709 27.1492 1.60321L26.8724 1.64854L26.3896 1.79216L25.8543 2.00829L25.2722 2.29455L24.6498 2.64779L23.9939 3.06416L23.3117 3.53909L22.6106 4.06738L21.8984 4.64323L21.1827 5.26035L20.4716 5.91196L19.7727 6.59093L19.0937 7.28982L18.4421 8.00098L17.825 8.71661L17.2492 9.42886L16.7209 10.1299L16.246 10.8122L15.8296 11.4681L15.4763 12.0905L15.1901 12.6725L14.974 13.2079L14.8303 13.6906L14.785 13.9675C14.7689 14.066 14.7615 14.1657 14.763 14.2655L14.7641 14.347C14.7654 14.4339 14.7775 14.5204 14.8002 14.6043L14.8125 14.6498C14.8348 14.7319 14.8705 14.8097 14.9184 14.88Z" fill="#6B1E23"/>
</svg>
