<svg width="24" height="24" viewBox="0 0 24 24" fill="none" xmlns="http://www.w3.org/2000/svg">
<path d="M17.4 2C16.2871 2.00014 15.1956 2.30496 14.2437 2.8814C13.2917 3.45785 12.5158 4.28391 12 5.27C11.3662 4.06378 10.3469 3.10448 9.10443 2.54506C7.86198 1.98563 6.46801 1.8583 5.14477 2.18335C3.82154 2.50841 2.64523 3.26714 1.80341 4.33857C0.961589 5.41 0.502732 6.73243 0.5 8.095C0.5 11.46 2.59 14.535 5.29 17.06C7.37296 18.9058 9.6188 20.5593 12 22C14.3633 20.5327 16.607 18.8809 18.71 17.06C21.71 14.32 23.5 11.46 23.5 8.095C23.5 7.29417 23.3422 6.5012 23.0356 5.76139C22.729 5.02159 22.2796 4.34946 21.713 3.78342C21.1465 3.21738 20.474 2.76853 19.734 2.46252C18.9939 2.15651 18.2008 1.99935 17.4 2Z" stroke="#0F0304" stroke-miterlimit="10"/>
</svg>
