<svg width="24" height="24" viewBox="0 0 24 24" fill="none" xmlns="http://www.w3.org/2000/svg">
<path d="M23.8595 23.181L17.5419 16.8634C19.3125 14.9156 20.2511 12.3525 20.1572 9.7219C20.0632 7.09127 18.9441 4.60172 17.039 2.78523C15.1339 0.968743 12.5939 -0.0306132 9.9618 0.000714928C7.32969 0.0320431 4.81421 1.09157 2.95289 2.95289C1.09157 4.81421 0.0320431 7.32969 0.000714928 9.9618C-0.0306132 12.5939 0.968743 15.1339 2.78523 17.039C4.60172 18.9441 7.09127 20.0632 9.7219 20.1572C12.3525 20.2511 14.9156 19.3125 16.8634 17.5419L23.181 23.8595C23.2709 23.9495 23.393 24 23.5202 24C23.6475 24 23.7695 23.9495 23.8595 23.8595C23.9495 23.7695 24 23.6475 24 23.5202C24 23.393 23.9495 23.2709 23.8595 23.181ZM0.983042 10.0938C0.983042 8.29187 1.51738 6.5304 2.51848 5.03214C3.51959 3.53388 4.9425 2.36613 6.60727 1.67656C8.27205 0.986985 10.1039 0.806562 11.8712 1.1581C13.6386 1.50964 15.2619 2.37736 16.5361 3.65153C17.8103 4.92569 18.678 6.54907 19.0295 8.31639C19.3811 10.0837 19.2006 11.9156 18.5111 13.5804C17.8215 15.2451 16.6537 16.668 15.1555 17.6691C13.6572 18.6703 11.8958 19.2046 10.0938 19.2046C7.67827 19.2021 5.36238 18.2414 3.65433 16.5333C1.94628 14.8252 0.98558 12.5094 0.983042 10.0938Z" fill="#0F0304"/>
</svg>
