<svg width="472" height="65" viewBox="0 0 472 65" fill="none" xmlns="http://www.w3.org/2000/svg">
<path d="M17.7639 65C14.4858 65 11.4882 64.1735 8.77119 62.5204C6.08372 60.8674 3.94261 58.6535 2.34784 55.8787C0.782615 53.0745 0 49.9603 0 46.5361L0.0885979 18.2425C0.0885979 14.8774 0.856446 11.837 2.39214 9.12125C3.92784 6.37602 6.03942 4.17688 8.72689 2.52384C11.4439 0.841281 14.4562 0 17.7639 0C21.1306 0 24.1282 0.811762 26.7566 2.43529C29.4145 4.05881 31.5261 6.25795 33.0913 9.0327C34.6861 11.7779 35.4835 14.8479 35.4835 18.2425V22.4046C35.4835 22.6408 35.3653 22.7589 35.1291 22.7589H24.9403C24.704 22.7589 24.5859 22.6408 24.5859 22.4046V18.2425C24.5859 16.2352 23.9362 14.5084 22.6368 13.062C21.3373 11.6156 19.713 10.8924 17.7639 10.8924C15.608 10.8924 13.9542 11.6303 12.8024 13.1063C11.6506 14.5822 11.0747 16.2943 11.0747 18.2425V46.5361C11.0747 48.75 11.7245 50.5654 13.0239 51.9823C14.3233 53.3697 15.9033 54.0634 17.7639 54.0634C19.713 54.0634 21.3373 53.2959 22.6368 51.7609C23.9362 50.1964 24.5859 48.4548 24.5859 46.5361V42.3297C24.5859 42.0936 24.704 41.9755 24.9403 41.9755H35.2177C35.4539 41.9755 35.5721 42.0936 35.5721 42.3297V46.5361C35.5721 49.9307 34.7747 53.0302 33.1799 55.8345C31.5556 58.6092 29.4145 60.8379 26.7566 62.5204C24.0986 64.1735 21.1011 65 17.7639 65Z" fill="white"/>
<path d="M60.9695 64.1144H50.6922C50.4559 64.1144 50.3378 63.9668 50.3378 63.6717L50.4264 1.37262C50.4264 1.13647 50.574 1.01839 50.8694 1.01839H60.9695C61.2649 1.01839 61.4125 1.13647 61.4125 1.37262L61.3239 26.0354H74.9237V1.37262C74.9237 1.13647 75.0418 1.01839 75.2781 1.01839H85.3783C85.6736 1.01839 85.8212 1.13647 85.8212 1.37262L85.9984 63.6717C85.9984 63.9668 85.8508 64.1144 85.5555 64.1144H75.3667C75.0714 64.1144 74.9237 63.9668 74.9237 63.6717V37.0163H61.3239V63.6717C61.3239 63.9668 61.2058 64.1144 60.9695 64.1144Z" fill="white"/>
<path d="M112.193 64.1144H101.916C101.68 64.1144 101.562 63.9668 101.562 63.6717L101.739 1.37262C101.739 1.13647 101.857 1.01839 102.093 1.01839H120.433C123.711 1.01839 126.723 1.8154 129.47 3.4094C132.216 5.00341 134.402 7.14351 136.026 9.8297C137.68 12.5159 138.507 15.5563 138.507 18.951C138.507 21.1649 138.167 23.1721 137.488 24.9728C136.809 26.7734 136.011 28.2936 135.096 29.5334C134.21 30.7732 133.398 31.6882 132.659 32.2786C135.938 35.9094 137.577 40.1748 137.577 45.0749L137.665 63.6717C137.665 63.9668 137.518 64.1144 137.222 64.1144H126.945C126.709 64.1144 126.59 64.0259 126.59 63.8488V45.0749C126.59 42.8906 125.823 41.0014 124.287 39.4074C122.751 37.8134 120.861 37.0163 118.617 37.0163H112.636L112.548 63.6717C112.548 63.9668 112.43 64.1144 112.193 64.1144ZM120.433 11.8665H112.636V26.124H120.433C122.293 26.124 123.947 25.4303 125.394 24.0429C126.871 22.6555 127.609 20.9582 127.609 18.951C127.609 17.0322 126.901 15.3792 125.483 13.9918C124.065 12.5749 122.382 11.8665 120.433 11.8665Z" fill="white"/>
<path d="M170.283 65C167.064 65 164.096 64.1735 161.379 62.5204C158.692 60.8674 156.521 58.6683 154.867 55.923C153.243 53.1483 152.431 50.1079 152.431 46.8018L152.52 18.0654C152.52 14.7003 153.332 11.6746 154.956 8.98842C156.551 6.27271 158.707 4.10309 161.424 2.47956C164.141 0.826521 167.094 0 170.283 0C173.591 0 176.559 0.811762 179.187 2.43529C181.845 4.05881 183.972 6.24319 185.567 8.98842C187.191 11.7041 188.003 14.7298 188.003 18.0654L188.092 46.8018C188.092 50.1079 187.294 53.1335 185.699 55.8787C184.075 58.6535 181.919 60.8674 179.232 62.5204C176.544 64.1735 173.562 65 170.283 65ZM170.283 54.0634C172.114 54.0634 173.709 53.3254 175.068 51.8495C176.426 50.344 177.105 48.6614 177.105 46.8018L177.017 18.0654C177.017 16.0581 176.382 14.3608 175.112 12.9734C173.842 11.5861 172.233 10.8924 170.283 10.8924C168.423 10.8924 166.828 11.5713 165.499 12.9292C164.17 14.287 163.506 15.9991 163.506 18.0654V46.8018C163.506 48.7795 164.17 50.4916 165.499 51.938C166.828 53.3549 168.423 54.0634 170.283 54.0634Z" fill="white"/>
<path d="M213.002 64.1144H203.92C203.448 64.1144 203.212 63.9078 203.212 63.4945L203.123 1.72684C203.123 1.25454 203.359 1.01839 203.832 1.01839H212.027L227.355 36.7507L226.912 1.72684C226.912 1.25454 227.177 1.01839 227.709 1.01839H236.702C237.056 1.01839 237.233 1.25454 237.233 1.72684L237.322 63.5831C237.322 63.9373 237.174 64.1144 236.879 64.1144H228.905L213.179 30.7289L213.843 63.406C213.843 63.8783 213.563 64.1144 213.002 64.1144Z" fill="white"/>
<path d="M270.162 65C266.943 65 263.974 64.1735 261.258 62.5204C258.57 60.8674 256.399 58.6683 254.746 55.923C253.121 53.1483 252.309 50.1079 252.309 46.8018L252.398 18.0654C252.398 14.7003 253.21 11.6746 254.834 8.98842C256.429 6.27271 258.585 4.10309 261.302 2.47956C264.019 0.826521 266.972 0 270.162 0C273.469 0 276.437 0.811762 279.066 2.43529C281.724 4.05881 283.85 6.24319 285.445 8.98842C287.069 11.7041 287.881 14.7298 287.881 18.0654L287.97 46.8018C287.97 50.1079 287.172 53.1335 285.578 55.8787C283.953 58.6535 281.797 60.8674 279.11 62.5204C276.423 64.1735 273.44 65 270.162 65ZM270.162 54.0634C271.993 54.0634 273.587 53.3254 274.946 51.8495C276.304 50.344 276.984 48.6614 276.984 46.8018L276.895 18.0654C276.895 16.0581 276.26 14.3608 274.99 12.9734C273.72 11.5861 272.111 10.8924 270.162 10.8924C268.301 10.8924 266.706 11.5713 265.377 12.9292C264.048 14.287 263.384 15.9991 263.384 18.0654V46.8018C263.384 48.7795 264.048 50.4916 265.377 51.938C266.706 53.3549 268.301 54.0634 270.162 54.0634Z" fill="white"/>
<path d="M332.682 64.1144H303.356C303.119 64.1144 303.001 63.9668 303.001 63.6717L303.09 1.46117C303.09 1.16599 303.238 1.01839 303.533 1.01839H313.633C313.928 1.01839 314.076 1.16599 314.076 1.46117L313.987 52.9564H332.682C332.977 52.9564 333.125 53.104 333.125 53.3992V63.6717C333.125 63.9668 332.977 64.1144 332.682 64.1144Z" fill="white"/>
<path d="M363.927 65C360.737 65 357.784 64.1735 355.067 62.5204C352.35 60.8674 350.179 58.6535 348.555 55.8787C346.96 53.0745 346.163 50.0193 346.163 46.7132L346.34 1.37262C346.34 1.13647 346.458 1.01839 346.694 1.01839H356.883C357.119 1.01839 357.237 1.13647 357.237 1.37262V46.7132C357.237 48.75 357.887 50.4916 359.187 51.938C360.486 53.3549 362.066 54.0634 363.927 54.0634C365.876 54.0634 367.5 53.3549 368.799 51.938C370.099 50.4916 370.749 48.75 370.749 46.7132V1.37262C370.749 1.13647 370.867 1.01839 371.103 1.01839H381.292C381.528 1.01839 381.646 1.13647 381.646 1.37262L381.823 46.7132C381.823 50.0488 381.026 53.1188 379.431 55.923C377.807 58.6978 375.651 60.9117 372.964 62.5647C370.276 64.1882 367.264 65 363.927 65Z" fill="white"/>
<path d="M404.519 64.1144H394.33C394.123 64.1144 394.034 63.9668 394.064 63.6717L404.43 31.3045L394.241 1.37262C394.182 1.13647 394.271 1.01839 394.507 1.01839H404.696C404.991 1.01839 405.168 1.13647 405.227 1.37262L411.296 22.936L417.454 1.37262C417.513 1.13647 417.705 1.01839 418.03 1.01839H428.086C428.322 1.01839 428.41 1.13647 428.351 1.37262L418.207 31.2159L428.44 63.6717C428.558 63.9668 428.47 64.1144 428.174 64.1144H418.03C417.764 64.1144 417.572 63.9668 417.454 63.6717L411.296 40.2486L405.05 63.6717C405.021 63.9668 404.843 64.1144 404.519 64.1144Z" fill="white"/>
<path d="M471.646 64.1144H442.32C442.083 64.1144 441.965 63.9668 441.965 63.6717L442.054 1.37262C442.054 1.13647 442.172 1.01839 442.408 1.01839H471.557C471.793 1.01839 471.911 1.16599 471.911 1.46117V11.6008C471.911 11.837 471.793 11.955 471.557 11.955H452.951V26.124H471.557C471.793 26.124 471.911 26.2421 471.911 26.4782L472 36.7507C472 36.9868 471.882 37.1049 471.646 37.1049H452.951V52.9564H471.646C471.882 52.9564 472 53.104 472 53.3992V63.7602C472 63.9964 471.882 64.1144 471.646 64.1144Z" fill="white"/>
</svg>
